<mxfile host="app.diagrams.net" modified="2022-02-11T17:20:51.615Z" agent="5.0 (Windows)" etag="JrlAwyopf_9uykerX_3o" version="16.5.6" type="github">
  <diagram id="C5RBs43oDa-KdzZeNtuy" name="Page-1">
    <mxGraphModel dx="981" dy="601" grid="1" gridSize="10" guides="1" tooltips="1" connect="1" arrows="1" fold="1" page="1" pageScale="1" pageWidth="827" pageHeight="1169" math="0" shadow="0">
      <root>
        <mxCell id="WIyWlLk6GJQsqaUBKTNV-0" />
        <mxCell id="WIyWlLk6GJQsqaUBKTNV-1" parent="WIyWlLk6GJQsqaUBKTNV-0" />
        <mxCell id="XCbRWYV9g9p37ovDSCoQ-3" style="edgeStyle=orthogonalEdgeStyle;rounded=0;orthogonalLoop=1;jettySize=auto;html=1;exitX=0.5;exitY=1;exitDx=0;exitDy=0;entryX=0.5;entryY=0;entryDx=0;entryDy=0;" edge="1" parent="WIyWlLk6GJQsqaUBKTNV-1" source="XCbRWYV9g9p37ovDSCoQ-0" target="XCbRWYV9g9p37ovDSCoQ-1">
          <mxGeometry relative="1" as="geometry" />
        </mxCell>
        <mxCell id="XCbRWYV9g9p37ovDSCoQ-0" value="&lt;div&gt;Start&lt;/div&gt;" style="ellipse;whiteSpace=wrap;html=1;" vertex="1" parent="WIyWlLk6GJQsqaUBKTNV-1">
          <mxGeometry width="120" height="80" as="geometry" />
        </mxCell>
        <mxCell id="XCbRWYV9g9p37ovDSCoQ-5" style="edgeStyle=orthogonalEdgeStyle;rounded=0;orthogonalLoop=1;jettySize=auto;html=1;exitX=0.5;exitY=1;exitDx=0;exitDy=0;entryX=0.5;entryY=0;entryDx=0;entryDy=0;" edge="1" parent="WIyWlLk6GJQsqaUBKTNV-1" source="XCbRWYV9g9p37ovDSCoQ-1" target="XCbRWYV9g9p37ovDSCoQ-4">
          <mxGeometry relative="1" as="geometry" />
        </mxCell>
        <mxCell id="XCbRWYV9g9p37ovDSCoQ-1" value="&lt;div&gt;Input&lt;/div&gt;" style="shape=parallelogram;perimeter=parallelogramPerimeter;whiteSpace=wrap;html=1;fixedSize=1;" vertex="1" parent="WIyWlLk6GJQsqaUBKTNV-1">
          <mxGeometry y="120" width="120" height="60" as="geometry" />
        </mxCell>
        <mxCell id="XCbRWYV9g9p37ovDSCoQ-7" style="edgeStyle=orthogonalEdgeStyle;rounded=0;orthogonalLoop=1;jettySize=auto;html=1;exitX=0.5;exitY=1;exitDx=0;exitDy=0;" edge="1" parent="WIyWlLk6GJQsqaUBKTNV-1" source="XCbRWYV9g9p37ovDSCoQ-4" target="XCbRWYV9g9p37ovDSCoQ-6">
          <mxGeometry relative="1" as="geometry" />
        </mxCell>
        <mxCell id="XCbRWYV9g9p37ovDSCoQ-4" value="Process" style="whiteSpace=wrap;html=1;aspect=fixed;" vertex="1" parent="WIyWlLk6GJQsqaUBKTNV-1">
          <mxGeometry x="20" y="240" width="80" height="80" as="geometry" />
        </mxCell>
        <mxCell id="XCbRWYV9g9p37ovDSCoQ-8" style="edgeStyle=orthogonalEdgeStyle;rounded=0;orthogonalLoop=1;jettySize=auto;html=1;exitX=1;exitY=0.5;exitDx=0;exitDy=0;entryX=0.942;entryY=0.667;entryDx=0;entryDy=0;entryPerimeter=0;" edge="1" parent="WIyWlLk6GJQsqaUBKTNV-1" source="XCbRWYV9g9p37ovDSCoQ-6" target="XCbRWYV9g9p37ovDSCoQ-1">
          <mxGeometry relative="1" as="geometry">
            <Array as="points">
              <mxPoint x="200" y="400" />
              <mxPoint x="200" y="160" />
            </Array>
          </mxGeometry>
        </mxCell>
        <mxCell id="XCbRWYV9g9p37ovDSCoQ-9" value="&lt;div&gt;No&lt;/div&gt;" style="edgeLabel;html=1;align=center;verticalAlign=middle;resizable=0;points=[];" vertex="1" connectable="0" parent="XCbRWYV9g9p37ovDSCoQ-8">
          <mxGeometry x="-0.8949" y="-1" relative="1" as="geometry">
            <mxPoint x="-13" y="-11" as="offset" />
          </mxGeometry>
        </mxCell>
        <mxCell id="XCbRWYV9g9p37ovDSCoQ-12" style="edgeStyle=orthogonalEdgeStyle;rounded=0;orthogonalLoop=1;jettySize=auto;html=1;exitX=0.5;exitY=1;exitDx=0;exitDy=0;entryX=0.5;entryY=0;entryDx=0;entryDy=0;" edge="1" parent="WIyWlLk6GJQsqaUBKTNV-1" source="XCbRWYV9g9p37ovDSCoQ-6" target="XCbRWYV9g9p37ovDSCoQ-11">
          <mxGeometry relative="1" as="geometry" />
        </mxCell>
        <mxCell id="XCbRWYV9g9p37ovDSCoQ-6" value="&lt;div&gt;Decision&lt;/div&gt;" style="rhombus;whiteSpace=wrap;html=1;" vertex="1" parent="WIyWlLk6GJQsqaUBKTNV-1">
          <mxGeometry x="20" y="360" width="80" height="80" as="geometry" />
        </mxCell>
        <mxCell id="XCbRWYV9g9p37ovDSCoQ-10" value="&lt;div&gt;Yes&lt;/div&gt;" style="text;html=1;align=center;verticalAlign=middle;resizable=0;points=[];autosize=1;strokeColor=none;fillColor=none;" vertex="1" parent="WIyWlLk6GJQsqaUBKTNV-1">
          <mxGeometry x="60" y="450" width="40" height="20" as="geometry" />
        </mxCell>
        <mxCell id="XCbRWYV9g9p37ovDSCoQ-11" value="Output" style="shape=parallelogram;perimeter=parallelogramPerimeter;whiteSpace=wrap;html=1;fixedSize=1;" vertex="1" parent="WIyWlLk6GJQsqaUBKTNV-1">
          <mxGeometry y="490" width="120" height="60" as="geometry" />
        </mxCell>
      </root>
    </mxGraphModel>
  </diagram>
</mxfile>
